<mxfile host="app.diagrams.net" agent="Mozilla/5.0 (X11; Linux x86_64) AppleWebKit/537.36 (KHTML, like Gecko) Chrome/128.0.0.0 Safari/537.36" version="24.7.17">
  <diagram name="Page-1" id="v4OYZadJGZ0uuDVmhkrR">
    <mxGraphModel dx="2216" dy="1849" grid="1" gridSize="10" guides="1" tooltips="1" connect="1" arrows="1" fold="1" page="1" pageScale="1" pageWidth="850" pageHeight="1100" math="0" shadow="0">
      <root>
        <mxCell id="0" />
        <mxCell id="1" parent="0" />
        <mxCell id="wfbUYWaoRHFGhfdGaJC--13" style="edgeStyle=orthogonalEdgeStyle;rounded=0;orthogonalLoop=1;jettySize=auto;html=1;entryX=0;entryY=0.5;entryDx=0;entryDy=0;startArrow=classic;startFill=1;strokeColor=#001933;" edge="1" parent="1" source="wfbUYWaoRHFGhfdGaJC--1" target="wfbUYWaoRHFGhfdGaJC--7">
          <mxGeometry relative="1" as="geometry" />
        </mxCell>
        <mxCell id="wfbUYWaoRHFGhfdGaJC--14" style="edgeStyle=orthogonalEdgeStyle;rounded=0;orthogonalLoop=1;jettySize=auto;html=1;entryX=0.5;entryY=1;entryDx=0;entryDy=0;startArrow=classic;startFill=1;strokeColor=#33001A;" edge="1" parent="1" source="wfbUYWaoRHFGhfdGaJC--1" target="wfbUYWaoRHFGhfdGaJC--9">
          <mxGeometry relative="1" as="geometry" />
        </mxCell>
        <mxCell id="wfbUYWaoRHFGhfdGaJC--15" style="edgeStyle=orthogonalEdgeStyle;rounded=0;orthogonalLoop=1;jettySize=auto;html=1;entryX=0;entryY=0.5;entryDx=0;entryDy=0;startArrow=classic;startFill=1;strokeColor=#660000;" edge="1" parent="1" source="wfbUYWaoRHFGhfdGaJC--1" target="wfbUYWaoRHFGhfdGaJC--6">
          <mxGeometry relative="1" as="geometry">
            <Array as="points">
              <mxPoint x="210" y="440" />
            </Array>
          </mxGeometry>
        </mxCell>
        <mxCell id="wfbUYWaoRHFGhfdGaJC--17" style="edgeStyle=orthogonalEdgeStyle;rounded=0;orthogonalLoop=1;jettySize=auto;html=1;startArrow=classic;startFill=1;strokeColor=#003333;" edge="1" parent="1" source="wfbUYWaoRHFGhfdGaJC--1" target="wfbUYWaoRHFGhfdGaJC--8">
          <mxGeometry relative="1" as="geometry">
            <Array as="points">
              <mxPoint x="660" y="220" />
            </Array>
          </mxGeometry>
        </mxCell>
        <mxCell id="wfbUYWaoRHFGhfdGaJC--1" value="Bitcoin node" style="rounded=0;whiteSpace=wrap;html=1;" vertex="1" parent="1">
          <mxGeometry x="150" y="180" width="120" height="60" as="geometry" />
        </mxCell>
        <mxCell id="wfbUYWaoRHFGhfdGaJC--18" style="edgeStyle=orthogonalEdgeStyle;rounded=0;orthogonalLoop=1;jettySize=auto;html=1;entryX=0.5;entryY=1;entryDx=0;entryDy=0;startArrow=classic;startFill=1;strokeColor=#331A00;" edge="1" parent="1" source="wfbUYWaoRHFGhfdGaJC--6" target="wfbUYWaoRHFGhfdGaJC--7">
          <mxGeometry relative="1" as="geometry">
            <Array as="points">
              <mxPoint x="320" y="430" />
            </Array>
          </mxGeometry>
        </mxCell>
        <mxCell id="wfbUYWaoRHFGhfdGaJC--6" value="Bitcoin node" style="rounded=0;whiteSpace=wrap;html=1;" vertex="1" parent="1">
          <mxGeometry x="395" y="410" width="120" height="60" as="geometry" />
        </mxCell>
        <mxCell id="wfbUYWaoRHFGhfdGaJC--7" value="Bitcoin node" style="rounded=0;whiteSpace=wrap;html=1;" vertex="1" parent="1">
          <mxGeometry x="260" y="20" width="120" height="60" as="geometry" />
        </mxCell>
        <mxCell id="wfbUYWaoRHFGhfdGaJC--16" style="edgeStyle=orthogonalEdgeStyle;rounded=0;orthogonalLoop=1;jettySize=auto;html=1;startArrow=classic;startFill=1;strokeColor=#003300;" edge="1" parent="1" source="wfbUYWaoRHFGhfdGaJC--8" target="wfbUYWaoRHFGhfdGaJC--6">
          <mxGeometry relative="1" as="geometry">
            <Array as="points">
              <mxPoint x="650" y="440" />
            </Array>
          </mxGeometry>
        </mxCell>
        <mxCell id="wfbUYWaoRHFGhfdGaJC--8" value="Bitcoin node" style="rounded=0;whiteSpace=wrap;html=1;" vertex="1" parent="1">
          <mxGeometry x="600" y="290" width="120" height="60" as="geometry" />
        </mxCell>
        <mxCell id="wfbUYWaoRHFGhfdGaJC--9" value="Bitcoin node" style="rounded=0;whiteSpace=wrap;html=1;" vertex="1" parent="1">
          <mxGeometry x="500" y="-10" width="120" height="60" as="geometry" />
        </mxCell>
        <mxCell id="wfbUYWaoRHFGhfdGaJC--19" style="edgeStyle=orthogonalEdgeStyle;rounded=0;orthogonalLoop=1;jettySize=auto;html=1;entryX=0.388;entryY=1.036;entryDx=0;entryDy=0;entryPerimeter=0;startArrow=classic;startFill=1;strokeColor=#1A3300;" edge="1" parent="1" source="wfbUYWaoRHFGhfdGaJC--6" target="wfbUYWaoRHFGhfdGaJC--9">
          <mxGeometry relative="1" as="geometry" />
        </mxCell>
        <mxCell id="wfbUYWaoRHFGhfdGaJC--20" style="edgeStyle=orthogonalEdgeStyle;rounded=0;orthogonalLoop=1;jettySize=auto;html=1;entryX=0.623;entryY=1.018;entryDx=0;entryDy=0;entryPerimeter=0;startArrow=classic;startFill=1;strokeColor=#333300;" edge="1" parent="1" source="wfbUYWaoRHFGhfdGaJC--8" target="wfbUYWaoRHFGhfdGaJC--7">
          <mxGeometry relative="1" as="geometry" />
        </mxCell>
        <mxCell id="wfbUYWaoRHFGhfdGaJC--21" style="edgeStyle=orthogonalEdgeStyle;rounded=0;orthogonalLoop=1;jettySize=auto;html=1;entryX=0.589;entryY=1.047;entryDx=0;entryDy=0;entryPerimeter=0;startArrow=classic;startFill=1;strokeColor=#330033;" edge="1" parent="1" source="wfbUYWaoRHFGhfdGaJC--8" target="wfbUYWaoRHFGhfdGaJC--9">
          <mxGeometry relative="1" as="geometry">
            <Array as="points">
              <mxPoint x="670" y="170" />
              <mxPoint x="571" y="170" />
            </Array>
          </mxGeometry>
        </mxCell>
        <mxCell id="wfbUYWaoRHFGhfdGaJC--22" value="Bitcoin node - чей-то компьютер, который хранит в себе информацию о всем блокчейне" style="text;html=1;align=left;verticalAlign=top;whiteSpace=wrap;rounded=0;" vertex="1" parent="1">
          <mxGeometry x="-110" y="-110" width="260" height="120" as="geometry" />
        </mxCell>
        <mxCell id="wfbUYWaoRHFGhfdGaJC--28" style="edgeStyle=orthogonalEdgeStyle;rounded=0;orthogonalLoop=1;jettySize=auto;html=1;entryX=0;entryY=0.5;entryDx=0;entryDy=0;" edge="1" parent="1" source="wfbUYWaoRHFGhfdGaJC--23" target="wfbUYWaoRHFGhfdGaJC--24">
          <mxGeometry relative="1" as="geometry" />
        </mxCell>
        <mxCell id="wfbUYWaoRHFGhfdGaJC--23" value="Самый первый блок" style="rounded=0;whiteSpace=wrap;html=1;" vertex="1" parent="1">
          <mxGeometry x="150" y="740" width="120" height="60" as="geometry" />
        </mxCell>
        <mxCell id="wfbUYWaoRHFGhfdGaJC--29" style="edgeStyle=orthogonalEdgeStyle;rounded=0;orthogonalLoop=1;jettySize=auto;html=1;entryX=0;entryY=0.5;entryDx=0;entryDy=0;" edge="1" parent="1" source="wfbUYWaoRHFGhfdGaJC--24" target="wfbUYWaoRHFGhfdGaJC--25">
          <mxGeometry relative="1" as="geometry" />
        </mxCell>
        <mxCell id="wfbUYWaoRHFGhfdGaJC--24" value="Блок" style="rounded=0;whiteSpace=wrap;html=1;" vertex="1" parent="1">
          <mxGeometry x="330" y="740" width="120" height="60" as="geometry" />
        </mxCell>
        <mxCell id="wfbUYWaoRHFGhfdGaJC--30" style="edgeStyle=orthogonalEdgeStyle;rounded=0;orthogonalLoop=1;jettySize=auto;html=1;entryX=0;entryY=0.5;entryDx=0;entryDy=0;" edge="1" parent="1" source="wfbUYWaoRHFGhfdGaJC--25" target="wfbUYWaoRHFGhfdGaJC--26">
          <mxGeometry relative="1" as="geometry" />
        </mxCell>
        <mxCell id="wfbUYWaoRHFGhfdGaJC--25" value="Блок" style="rounded=0;whiteSpace=wrap;html=1;" vertex="1" parent="1">
          <mxGeometry x="500" y="740" width="120" height="60" as="geometry" />
        </mxCell>
        <mxCell id="wfbUYWaoRHFGhfdGaJC--32" style="edgeStyle=orthogonalEdgeStyle;rounded=0;orthogonalLoop=1;jettySize=auto;html=1;entryX=0;entryY=0.5;entryDx=0;entryDy=0;" edge="1" parent="1" source="wfbUYWaoRHFGhfdGaJC--26" target="wfbUYWaoRHFGhfdGaJC--27">
          <mxGeometry relative="1" as="geometry" />
        </mxCell>
        <mxCell id="wfbUYWaoRHFGhfdGaJC--26" value="Блок" style="rounded=0;whiteSpace=wrap;html=1;" vertex="1" parent="1">
          <mxGeometry x="670" y="740" width="120" height="60" as="geometry" />
        </mxCell>
        <mxCell id="wfbUYWaoRHFGhfdGaJC--27" value="Блок" style="rounded=0;whiteSpace=wrap;html=1;" vertex="1" parent="1">
          <mxGeometry x="830" y="740" width="120" height="60" as="geometry" />
        </mxCell>
        <mxCell id="wfbUYWaoRHFGhfdGaJC--33" value="Block hash:&amp;nbsp;0000000000000bae09a7a393a8acded75aa67e46cb81f7acaa5ad94f9eacd103" style="text;html=1;align=left;verticalAlign=middle;whiteSpace=wrap;rounded=0;" vertex="1" parent="1">
          <mxGeometry x="830" y="870" width="500" height="30" as="geometry" />
        </mxCell>
        <mxCell id="wfbUYWaoRHFGhfdGaJC--34" value="Previous block hash:&amp;nbsp;00000000000007d0f98d9edca880a6c124e25095712df8952e0439ac7409738a" style="text;html=1;align=left;verticalAlign=middle;whiteSpace=wrap;rounded=0;" vertex="1" parent="1">
          <mxGeometry x="830" y="900" width="550" height="30" as="geometry" />
        </mxCell>
        <mxCell id="wfbUYWaoRHFGhfdGaJC--35" value="Bits:&amp;nbsp;437129626" style="text;html=1;align=left;verticalAlign=middle;resizable=0;points=[];autosize=1;strokeColor=none;fillColor=none;" vertex="1" parent="1">
          <mxGeometry x="830" y="930" width="110" height="30" as="geometry" />
        </mxCell>
        <mxCell id="wfbUYWaoRHFGhfdGaJC--36" style="edgeStyle=orthogonalEdgeStyle;rounded=0;orthogonalLoop=1;jettySize=auto;html=1;entryX=0.12;entryY=0.106;entryDx=0;entryDy=0;entryPerimeter=0;dashed=1;" edge="1" parent="1" source="wfbUYWaoRHFGhfdGaJC--27" target="wfbUYWaoRHFGhfdGaJC--33">
          <mxGeometry relative="1" as="geometry" />
        </mxCell>
        <mxCell id="wfbUYWaoRHFGhfdGaJC--37" value="Target:&amp;nbsp;22607619418140130980719672680045705126213018528712048676700160" style="text;html=1;align=left;verticalAlign=middle;whiteSpace=wrap;rounded=0;" vertex="1" parent="1">
          <mxGeometry x="830" y="960" width="470" height="30" as="geometry" />
        </mxCell>
        <mxCell id="wfbUYWaoRHFGhfdGaJC--38" value="У каждого блока есть:&lt;br&gt;1. Hash&lt;br&gt;2. Bits&lt;br&gt;На основе Bits вычисляется Target - это цель для генерации следующего блока. Нам нужно найти хеш, который был бы меньше этого target (см. видео о майнере)" style="text;html=1;align=left;verticalAlign=top;whiteSpace=wrap;rounded=0;" vertex="1" parent="1">
          <mxGeometry x="950" y="580" width="210" height="140" as="geometry" />
        </mxCell>
      </root>
    </mxGraphModel>
  </diagram>
</mxfile>
